<svg class="svg-icon" style="width: 1em;height: 1em;vertical-align: middle;fill: currentColor;overflow: hidden;" viewBox="0 0 1024 1024" version="1.1" xmlns="http://www.w3.org/2000/svg"><path d="M512 48l97.28 44.544 55.808 24.768c11.968 5.248 22.4 9.664 31.36 13.44l24.512 9.6 44.416 16.128c34.24 12.032 77.824 26.56 130.624 43.712v336.96c0 126.976-112.256 268.864-288.832 383.232l-18.432 11.776c-8.32 5.12-33.92 19.776-76.736 43.84l-74.24-41.856-2.688-1.6C247.36 816.96 127.232 669.376 128 537.152V200.192l55.104-18.048 67.072-22.72c29.44-10.24 52.736-18.752 69.824-25.664l34.944-14.72L422.4 89.216c26.176-11.84 56.064-25.6 89.664-41.152z m0 70.464l-43.84 20.16-59.968 27.008c-26.56 11.776-48 20.928-64.256 27.52-23.936 9.6-58.56 22.08-104.064 37.504L192 246.592v290.944c-0.512 99.008 95.168 224.064 258.88 329.28l20.16 12.672 40.704 23.104 40.768-23.36 2.432-1.472c168-104.448 269.632-229.44 276.672-329.6L832 537.152v-290.56l-81.152-27.392-40.576-14.528-30.208-11.52-17.728-7.36-21.184-9.088c-19.2-8.32-41.984-18.432-68.48-30.464L512 118.464z m201.6 211.648l45.312 45.248-271.552 271.552L328.96 488.512l45.248-45.248 113.152 113.088 226.24-226.24z" fill="#ffffff" /></svg>
